<?xml version="1.0" encoding="UTF-8"?>
<mxfile host="app.diagrams.net" modified="2023-09-29T00:58:54.808Z" agent="Mozilla/5.0 (Windows NT 10.0; Win64; x64) AppleWebKit/537.36 (KHTML, like Gecko) Chrome/117.0.0.0 Safari/537.36" etag="Fs6un90XDxuElCJInCXH" version="21.8.2" type="google">
  <diagram name="Página-1" id="VMbjgd3R45f6h9lEazuk">
    <mxGraphModel dx="1707" dy="478" grid="1" gridSize="10" guides="1" tooltips="1" connect="1" arrows="1" fold="1" page="1" pageScale="1" pageWidth="827" pageHeight="1169" math="0" shadow="0">
      <root>
        <mxCell id="0" />
        <mxCell id="1" parent="0" />
        <mxCell id="9gHFa2cFM0NEfiinafTs-13" style="edgeStyle=orthogonalEdgeStyle;shape=connector;rounded=0;orthogonalLoop=1;jettySize=auto;html=1;exitX=0.5;exitY=0;exitDx=0;exitDy=0;labelBackgroundColor=default;strokeColor=default;fontFamily=Helvetica;fontSize=11;fontColor=default;endArrow=none;endFill=0;entryX=0;entryY=0.5;entryDx=0;entryDy=0;entryPerimeter=0;" parent="1" source="9gHFa2cFM0NEfiinafTs-1" target="9gHFa2cFM0NEfiinafTs-7" edge="1">
          <mxGeometry relative="1" as="geometry">
            <mxPoint x="470" y="600" as="targetPoint" />
            <Array as="points">
              <mxPoint x="-230" y="520" />
            </Array>
          </mxGeometry>
        </mxCell>
        <mxCell id="9gHFa2cFM0NEfiinafTs-22" value="&lt;font style=&quot;font-size: 13px;&quot;&gt;(1,n)&lt;/font&gt;" style="edgeLabel;html=1;align=center;verticalAlign=middle;resizable=0;points=[];fontSize=13;fontFamily=Helvetica;fontColor=default;" parent="9gHFa2cFM0NEfiinafTs-13" connectable="0" vertex="1">
          <mxGeometry x="-0.8462" y="1" relative="1" as="geometry">
            <mxPoint as="offset" />
          </mxGeometry>
        </mxCell>
        <mxCell id="9gHFa2cFM0NEfiinafTs-44" style="edgeStyle=orthogonalEdgeStyle;shape=connector;rounded=1;orthogonalLoop=1;jettySize=auto;html=1;exitX=0;exitY=0.5;exitDx=0;exitDy=0;entryX=1;entryY=0.5;entryDx=0;entryDy=0;entryPerimeter=0;labelBackgroundColor=default;strokeColor=default;fontFamily=Helvetica;fontSize=11;fontColor=default;endArrow=none;endFill=0;" parent="1" source="9gHFa2cFM0NEfiinafTs-1" target="9gHFa2cFM0NEfiinafTs-33" edge="1">
          <mxGeometry relative="1" as="geometry" />
        </mxCell>
        <mxCell id="9gHFa2cFM0NEfiinafTs-46" style="edgeStyle=orthogonalEdgeStyle;shape=connector;rounded=1;orthogonalLoop=1;jettySize=auto;html=1;exitX=0;exitY=0.75;exitDx=0;exitDy=0;entryX=1;entryY=0.5;entryDx=0;entryDy=0;entryPerimeter=0;labelBackgroundColor=default;strokeColor=default;fontFamily=Helvetica;fontSize=11;fontColor=default;endArrow=none;endFill=0;" parent="1" source="9gHFa2cFM0NEfiinafTs-1" target="9gHFa2cFM0NEfiinafTs-34" edge="1">
          <mxGeometry relative="1" as="geometry" />
        </mxCell>
        <mxCell id="9gHFa2cFM0NEfiinafTs-47" style="edgeStyle=orthogonalEdgeStyle;shape=connector;rounded=1;orthogonalLoop=1;jettySize=auto;html=1;exitX=0;exitY=0.75;exitDx=0;exitDy=0;entryX=0.855;entryY=0.145;entryDx=0;entryDy=0;entryPerimeter=0;labelBackgroundColor=default;strokeColor=default;fontFamily=Helvetica;fontSize=11;fontColor=default;endArrow=none;endFill=0;" parent="1" source="9gHFa2cFM0NEfiinafTs-1" target="9gHFa2cFM0NEfiinafTs-30" edge="1">
          <mxGeometry relative="1" as="geometry">
            <Array as="points">
              <mxPoint x="-330" y="796" />
              <mxPoint x="-330" y="981" />
              <mxPoint x="-342" y="981" />
            </Array>
          </mxGeometry>
        </mxCell>
        <mxCell id="9gHFa2cFM0NEfiinafTs-48" style="edgeStyle=orthogonalEdgeStyle;shape=connector;rounded=1;orthogonalLoop=1;jettySize=auto;html=1;exitX=0.5;exitY=1;exitDx=0;exitDy=0;labelBackgroundColor=default;strokeColor=default;fontFamily=Helvetica;fontSize=11;fontColor=default;endArrow=none;endFill=0;" parent="1" source="9gHFa2cFM0NEfiinafTs-1" target="9gHFa2cFM0NEfiinafTs-31" edge="1">
          <mxGeometry relative="1" as="geometry" />
        </mxCell>
        <mxCell id="9gHFa2cFM0NEfiinafTs-49" style="edgeStyle=orthogonalEdgeStyle;shape=connector;rounded=1;orthogonalLoop=1;jettySize=auto;html=1;exitX=0.5;exitY=1;exitDx=0;exitDy=0;entryX=0.366;entryY=-0.035;entryDx=0;entryDy=0;entryPerimeter=0;labelBackgroundColor=default;strokeColor=default;fontFamily=Helvetica;fontSize=11;fontColor=default;endArrow=none;endFill=0;" parent="1" source="9gHFa2cFM0NEfiinafTs-1" target="9gHFa2cFM0NEfiinafTs-32" edge="1">
          <mxGeometry relative="1" as="geometry">
            <Array as="points">
              <mxPoint x="-230" y="861" />
              <mxPoint x="-281" y="861" />
            </Array>
          </mxGeometry>
        </mxCell>
        <mxCell id="9gHFa2cFM0NEfiinafTs-1" value="LICITAÇÃO" style="rounded=0;whiteSpace=wrap;html=1;fillColor=#dae8fc;strokeColor=#6c8ebf;" parent="1" vertex="1">
          <mxGeometry x="-290" y="751" width="120" height="60" as="geometry" />
        </mxCell>
        <mxCell id="9gHFa2cFM0NEfiinafTs-14" style="edgeStyle=orthogonalEdgeStyle;shape=connector;rounded=0;orthogonalLoop=1;jettySize=auto;html=1;exitX=0.5;exitY=0;exitDx=0;exitDy=0;entryX=0.5;entryY=1;entryDx=0;entryDy=0;entryPerimeter=0;labelBackgroundColor=default;strokeColor=default;fontFamily=Helvetica;fontSize=11;fontColor=default;endArrow=none;endFill=0;exitPerimeter=0;" parent="1" source="9gHFa2cFM0NEfiinafTs-25" target="9gHFa2cFM0NEfiinafTs-7" edge="1">
          <mxGeometry relative="1" as="geometry" />
        </mxCell>
        <mxCell id="9gHFa2cFM0NEfiinafTs-28" value="&lt;font style=&quot;font-size: 14px;&quot;&gt;(0,1)&lt;/font&gt;" style="edgeLabel;html=1;align=center;verticalAlign=middle;resizable=0;points=[];fontSize=11;fontFamily=Helvetica;fontColor=default;" parent="9gHFa2cFM0NEfiinafTs-14" connectable="0" vertex="1">
          <mxGeometry x="0.7053" relative="1" as="geometry">
            <mxPoint y="10" as="offset" />
          </mxGeometry>
        </mxCell>
        <mxCell id="9gHFa2cFM0NEfiinafTs-52" style="edgeStyle=orthogonalEdgeStyle;shape=connector;rounded=1;orthogonalLoop=1;jettySize=auto;html=1;exitX=1;exitY=0.25;exitDx=0;exitDy=0;entryX=0;entryY=0.5;entryDx=0;entryDy=0;entryPerimeter=0;labelBackgroundColor=default;strokeColor=default;fontFamily=Helvetica;fontSize=11;fontColor=default;endArrow=none;endFill=0;" parent="1" source="9gHFa2cFM0NEfiinafTs-2" target="9gHFa2cFM0NEfiinafTs-37" edge="1">
          <mxGeometry relative="1" as="geometry" />
        </mxCell>
        <mxCell id="9gHFa2cFM0NEfiinafTs-53" style="edgeStyle=orthogonalEdgeStyle;shape=connector;rounded=1;orthogonalLoop=1;jettySize=auto;html=1;exitX=1;exitY=0.25;exitDx=0;exitDy=0;entryX=0;entryY=0.5;entryDx=0;entryDy=0;entryPerimeter=0;labelBackgroundColor=default;strokeColor=default;fontFamily=Helvetica;fontSize=11;fontColor=default;endArrow=none;endFill=0;" parent="1" source="9gHFa2cFM0NEfiinafTs-2" target="9gHFa2cFM0NEfiinafTs-42" edge="1">
          <mxGeometry relative="1" as="geometry" />
        </mxCell>
        <mxCell id="9gHFa2cFM0NEfiinafTs-54" style="edgeStyle=orthogonalEdgeStyle;shape=connector;rounded=1;orthogonalLoop=1;jettySize=auto;html=1;exitX=1;exitY=0.25;exitDx=0;exitDy=0;entryX=0;entryY=0.5;entryDx=0;entryDy=0;entryPerimeter=0;labelBackgroundColor=default;strokeColor=default;fontFamily=Helvetica;fontSize=11;fontColor=default;endArrow=none;endFill=0;" parent="1" source="9gHFa2cFM0NEfiinafTs-2" target="9gHFa2cFM0NEfiinafTs-39" edge="1">
          <mxGeometry relative="1" as="geometry" />
        </mxCell>
        <mxCell id="9gHFa2cFM0NEfiinafTs-55" style="edgeStyle=orthogonalEdgeStyle;shape=connector;rounded=1;orthogonalLoop=1;jettySize=auto;html=1;exitX=1;exitY=0.25;exitDx=0;exitDy=0;entryX=0;entryY=0.5;entryDx=0;entryDy=0;entryPerimeter=0;labelBackgroundColor=default;strokeColor=default;fontFamily=Helvetica;fontSize=11;fontColor=default;endArrow=none;endFill=0;" parent="1" source="9gHFa2cFM0NEfiinafTs-2" target="9gHFa2cFM0NEfiinafTs-38" edge="1">
          <mxGeometry relative="1" as="geometry" />
        </mxCell>
        <mxCell id="9gHFa2cFM0NEfiinafTs-2" value="PRODUTO" style="rounded=0;whiteSpace=wrap;html=1;fillColor=#dae8fc;strokeColor=#6c8ebf;" parent="1" vertex="1">
          <mxGeometry x="210" y="751" width="120" height="60" as="geometry" />
        </mxCell>
        <mxCell id="9gHFa2cFM0NEfiinafTs-68" style="edgeStyle=orthogonalEdgeStyle;shape=connector;rounded=1;orthogonalLoop=1;jettySize=auto;html=1;exitX=0;exitY=0;exitDx=0;exitDy=0;entryX=0.5;entryY=1;entryDx=0;entryDy=0;entryPerimeter=0;labelBackgroundColor=default;strokeColor=default;fontFamily=Helvetica;fontSize=11;fontColor=default;endArrow=none;endFill=0;" parent="1" source="9gHFa2cFM0NEfiinafTs-3" target="9gHFa2cFM0NEfiinafTs-62" edge="1">
          <mxGeometry relative="1" as="geometry" />
        </mxCell>
        <mxCell id="9gHFa2cFM0NEfiinafTs-71" style="edgeStyle=orthogonalEdgeStyle;shape=connector;rounded=1;orthogonalLoop=1;jettySize=auto;html=1;exitX=0;exitY=0.25;exitDx=0;exitDy=0;entryX=0.5;entryY=1;entryDx=0;entryDy=0;entryPerimeter=0;labelBackgroundColor=default;strokeColor=default;fontFamily=Helvetica;fontSize=11;fontColor=default;endArrow=none;endFill=0;" parent="1" source="9gHFa2cFM0NEfiinafTs-3" target="9gHFa2cFM0NEfiinafTs-63" edge="1">
          <mxGeometry relative="1" as="geometry">
            <Array as="points">
              <mxPoint x="-220" y="340" />
              <mxPoint x="-330" y="340" />
            </Array>
          </mxGeometry>
        </mxCell>
        <mxCell id="9gHFa2cFM0NEfiinafTs-72" style="edgeStyle=orthogonalEdgeStyle;shape=connector;rounded=1;orthogonalLoop=1;jettySize=auto;html=1;exitX=0;exitY=0;exitDx=0;exitDy=0;entryX=1;entryY=0.5;entryDx=0;entryDy=0;entryPerimeter=0;labelBackgroundColor=default;strokeColor=default;fontFamily=Helvetica;fontSize=11;fontColor=default;endArrow=none;endFill=0;" parent="1" source="9gHFa2cFM0NEfiinafTs-3" target="9gHFa2cFM0NEfiinafTs-64" edge="1">
          <mxGeometry relative="1" as="geometry" />
        </mxCell>
        <mxCell id="9gHFa2cFM0NEfiinafTs-73" style="edgeStyle=orthogonalEdgeStyle;shape=connector;rounded=1;orthogonalLoop=1;jettySize=auto;html=1;exitX=0;exitY=0.25;exitDx=0;exitDy=0;labelBackgroundColor=default;strokeColor=default;fontFamily=Helvetica;fontSize=11;fontColor=default;endArrow=none;endFill=0;" parent="1" source="9gHFa2cFM0NEfiinafTs-3" target="9gHFa2cFM0NEfiinafTs-65" edge="1">
          <mxGeometry relative="1" as="geometry" />
        </mxCell>
        <mxCell id="9gHFa2cFM0NEfiinafTs-74" style="edgeStyle=orthogonalEdgeStyle;shape=connector;rounded=1;orthogonalLoop=1;jettySize=auto;html=1;exitX=0.25;exitY=1;exitDx=0;exitDy=0;entryX=0.5;entryY=0;entryDx=0;entryDy=0;entryPerimeter=0;labelBackgroundColor=default;strokeColor=default;fontFamily=Helvetica;fontSize=11;fontColor=default;endArrow=none;endFill=0;" parent="1" source="9gHFa2cFM0NEfiinafTs-3" target="9gHFa2cFM0NEfiinafTs-67" edge="1">
          <mxGeometry relative="1" as="geometry" />
        </mxCell>
        <mxCell id="9gHFa2cFM0NEfiinafTs-75" style="edgeStyle=orthogonalEdgeStyle;shape=connector;rounded=1;orthogonalLoop=1;jettySize=auto;html=1;exitX=0;exitY=0.75;exitDx=0;exitDy=0;entryX=0.855;entryY=0.145;entryDx=0;entryDy=0;entryPerimeter=0;labelBackgroundColor=default;strokeColor=default;fontFamily=Helvetica;fontSize=11;fontColor=default;endArrow=none;endFill=0;" parent="1" source="9gHFa2cFM0NEfiinafTs-3" target="9gHFa2cFM0NEfiinafTs-66" edge="1">
          <mxGeometry relative="1" as="geometry">
            <Array as="points">
              <mxPoint x="-220" y="430" />
              <mxPoint x="-302" y="430" />
            </Array>
          </mxGeometry>
        </mxCell>
        <mxCell id="9gHFa2cFM0NEfiinafTs-3" value="USUARIO" style="rounded=0;whiteSpace=wrap;html=1;fillColor=#dae8fc;strokeColor=#6c8ebf;" parent="1" vertex="1">
          <mxGeometry x="-220" y="360" width="120" height="60" as="geometry" />
        </mxCell>
        <mxCell id="9gHFa2cFM0NEfiinafTs-10" style="edgeStyle=orthogonalEdgeStyle;shape=connector;rounded=0;orthogonalLoop=1;jettySize=auto;html=1;exitX=0.5;exitY=1;exitDx=0;exitDy=0;entryX=0.5;entryY=0;entryDx=0;entryDy=0;entryPerimeter=0;labelBackgroundColor=default;strokeColor=default;fontFamily=Helvetica;fontSize=11;fontColor=default;endArrow=none;endFill=0;" parent="1" source="9gHFa2cFM0NEfiinafTs-4" target="9gHFa2cFM0NEfiinafTs-7" edge="1">
          <mxGeometry relative="1" as="geometry" />
        </mxCell>
        <mxCell id="9gHFa2cFM0NEfiinafTs-21" value="&lt;font style=&quot;font-size: 14px;&quot;&gt;(0,n)&lt;/font&gt;" style="edgeLabel;html=1;align=center;verticalAlign=middle;resizable=0;points=[];fontSize=14;fontFamily=Helvetica;fontColor=default;" parent="9gHFa2cFM0NEfiinafTs-10" connectable="0" vertex="1">
          <mxGeometry x="-0.664" y="-1" relative="1" as="geometry">
            <mxPoint as="offset" />
          </mxGeometry>
        </mxCell>
        <mxCell id="9gHFa2cFM0NEfiinafTs-59" style="edgeStyle=orthogonalEdgeStyle;shape=connector;rounded=1;orthogonalLoop=1;jettySize=auto;html=1;exitX=0.75;exitY=0;exitDx=0;exitDy=0;entryX=0.5;entryY=1;entryDx=0;entryDy=0;entryPerimeter=0;labelBackgroundColor=default;strokeColor=default;fontFamily=Helvetica;fontSize=11;fontColor=default;endArrow=none;endFill=0;" parent="1" source="9gHFa2cFM0NEfiinafTs-4" target="9gHFa2cFM0NEfiinafTs-56" edge="1">
          <mxGeometry relative="1" as="geometry">
            <Array as="points">
              <mxPoint x="300" y="340" />
              <mxPoint x="230" y="340" />
            </Array>
          </mxGeometry>
        </mxCell>
        <mxCell id="9gHFa2cFM0NEfiinafTs-60" style="edgeStyle=orthogonalEdgeStyle;shape=connector;rounded=1;orthogonalLoop=1;jettySize=auto;html=1;exitX=0.75;exitY=0;exitDx=0;exitDy=0;entryX=0;entryY=0.5;entryDx=0;entryDy=0;entryPerimeter=0;labelBackgroundColor=default;strokeColor=default;fontFamily=Helvetica;fontSize=11;fontColor=default;endArrow=none;endFill=0;" parent="1" source="9gHFa2cFM0NEfiinafTs-4" target="9gHFa2cFM0NEfiinafTs-58" edge="1">
          <mxGeometry relative="1" as="geometry" />
        </mxCell>
        <mxCell id="9gHFa2cFM0NEfiinafTs-61" style="edgeStyle=orthogonalEdgeStyle;shape=connector;rounded=1;orthogonalLoop=1;jettySize=auto;html=1;exitX=0.75;exitY=0;exitDx=0;exitDy=0;entryX=0.5;entryY=1;entryDx=0;entryDy=0;entryPerimeter=0;labelBackgroundColor=default;strokeColor=default;fontFamily=Helvetica;fontSize=11;fontColor=default;endArrow=none;endFill=0;" parent="1" source="9gHFa2cFM0NEfiinafTs-4" target="9gHFa2cFM0NEfiinafTs-57" edge="1">
          <mxGeometry relative="1" as="geometry" />
        </mxCell>
        <mxCell id="9gHFa2cFM0NEfiinafTs-4" value="PEDIDO" style="rounded=0;whiteSpace=wrap;html=1;fillColor=#dae8fc;strokeColor=#6c8ebf;" parent="1" vertex="1">
          <mxGeometry x="210" y="360" width="120" height="60" as="geometry" />
        </mxCell>
        <mxCell id="9gHFa2cFM0NEfiinafTs-8" style="edgeStyle=orthogonalEdgeStyle;rounded=0;orthogonalLoop=1;jettySize=auto;html=1;exitX=0;exitY=0.5;exitDx=0;exitDy=0;exitPerimeter=0;endArrow=none;endFill=0;" parent="1" source="9gHFa2cFM0NEfiinafTs-5" target="9gHFa2cFM0NEfiinafTs-3" edge="1">
          <mxGeometry relative="1" as="geometry" />
        </mxCell>
        <mxCell id="9gHFa2cFM0NEfiinafTs-18" value="(&lt;font style=&quot;font-size: 13px;&quot;&gt;1,1&lt;/font&gt;)" style="edgeLabel;html=1;align=center;verticalAlign=middle;resizable=0;points=[];fontSize=13;fontFamily=Helvetica;fontColor=default;" parent="9gHFa2cFM0NEfiinafTs-8" connectable="0" vertex="1">
          <mxGeometry x="0.4242" relative="1" as="geometry">
            <mxPoint x="-7" as="offset" />
          </mxGeometry>
        </mxCell>
        <mxCell id="9gHFa2cFM0NEfiinafTs-9" style="edgeStyle=orthogonalEdgeStyle;shape=connector;rounded=0;orthogonalLoop=1;jettySize=auto;html=1;exitX=1;exitY=0.5;exitDx=0;exitDy=0;exitPerimeter=0;entryX=0;entryY=0.5;entryDx=0;entryDy=0;labelBackgroundColor=default;strokeColor=default;fontFamily=Helvetica;fontSize=11;fontColor=default;endArrow=none;endFill=0;" parent="1" source="9gHFa2cFM0NEfiinafTs-5" target="9gHFa2cFM0NEfiinafTs-4" edge="1">
          <mxGeometry relative="1" as="geometry" />
        </mxCell>
        <mxCell id="9gHFa2cFM0NEfiinafTs-19" value="&lt;font style=&quot;font-size: 14px;&quot;&gt;(0,n)&lt;/font&gt;" style="edgeLabel;html=1;align=center;verticalAlign=middle;resizable=0;points=[];fontSize=14;fontFamily=Helvetica;fontColor=default;" parent="9gHFa2cFM0NEfiinafTs-9" connectable="0" vertex="1">
          <mxGeometry x="0.65" y="1" relative="1" as="geometry">
            <mxPoint x="-9" as="offset" />
          </mxGeometry>
        </mxCell>
        <mxCell id="9gHFa2cFM0NEfiinafTs-5" value="" style="strokeWidth=1;html=1;shape=mxgraph.flowchart.decision;whiteSpace=wrap;strokeColor=#33FF33;" parent="1" vertex="1">
          <mxGeometry x="30" y="370" width="60" height="40" as="geometry" />
        </mxCell>
        <mxCell id="9gHFa2cFM0NEfiinafTs-11" style="edgeStyle=orthogonalEdgeStyle;shape=connector;rounded=0;orthogonalLoop=1;jettySize=auto;html=1;exitX=1;exitY=0.5;exitDx=0;exitDy=0;exitPerimeter=0;entryX=0;entryY=0.5;entryDx=0;entryDy=0;labelBackgroundColor=default;strokeColor=default;fontFamily=Helvetica;fontSize=11;fontColor=default;endArrow=none;endFill=0;" parent="1" source="9gHFa2cFM0NEfiinafTs-6" target="9gHFa2cFM0NEfiinafTs-2" edge="1">
          <mxGeometry relative="1" as="geometry" />
        </mxCell>
        <mxCell id="9gHFa2cFM0NEfiinafTs-24" value="&lt;font style=&quot;font-size: 14px;&quot;&gt;(1,n)&lt;/font&gt;" style="edgeLabel;html=1;align=center;verticalAlign=middle;resizable=0;points=[];fontSize=11;fontFamily=Helvetica;fontColor=default;" parent="9gHFa2cFM0NEfiinafTs-11" connectable="0" vertex="1">
          <mxGeometry x="0.65" y="1" relative="1" as="geometry">
            <mxPoint as="offset" />
          </mxGeometry>
        </mxCell>
        <mxCell id="9gHFa2cFM0NEfiinafTs-12" style="edgeStyle=orthogonalEdgeStyle;shape=connector;rounded=0;orthogonalLoop=1;jettySize=auto;html=1;exitX=0;exitY=0.5;exitDx=0;exitDy=0;exitPerimeter=0;entryX=1;entryY=0.5;entryDx=0;entryDy=0;labelBackgroundColor=default;strokeColor=default;fontFamily=Helvetica;fontSize=11;fontColor=default;endArrow=none;endFill=0;" parent="1" source="9gHFa2cFM0NEfiinafTs-6" target="9gHFa2cFM0NEfiinafTs-1" edge="1">
          <mxGeometry relative="1" as="geometry" />
        </mxCell>
        <mxCell id="9gHFa2cFM0NEfiinafTs-23" value="&lt;font style=&quot;font-size: 14px;&quot;&gt;(0,n)&lt;/font&gt;" style="edgeLabel;html=1;align=center;verticalAlign=middle;resizable=0;points=[];fontSize=11;fontFamily=Helvetica;fontColor=default;" parent="9gHFa2cFM0NEfiinafTs-12" connectable="0" vertex="1">
          <mxGeometry x="0.6875" relative="1" as="geometry">
            <mxPoint as="offset" />
          </mxGeometry>
        </mxCell>
        <mxCell id="9gHFa2cFM0NEfiinafTs-50" style="edgeStyle=orthogonalEdgeStyle;shape=connector;rounded=1;orthogonalLoop=1;jettySize=auto;html=1;exitX=0.5;exitY=1;exitDx=0;exitDy=0;exitPerimeter=0;entryX=0.5;entryY=0;entryDx=0;entryDy=0;entryPerimeter=0;labelBackgroundColor=default;strokeColor=default;fontFamily=Helvetica;fontSize=11;fontColor=default;endArrow=none;endFill=0;" parent="1" source="9gHFa2cFM0NEfiinafTs-6" target="9gHFa2cFM0NEfiinafTs-35" edge="1">
          <mxGeometry relative="1" as="geometry" />
        </mxCell>
        <mxCell id="9gHFa2cFM0NEfiinafTs-51" style="edgeStyle=orthogonalEdgeStyle;shape=connector;rounded=1;orthogonalLoop=1;jettySize=auto;html=1;exitX=0.5;exitY=1;exitDx=0;exitDy=0;exitPerimeter=0;entryX=0.5;entryY=0;entryDx=0;entryDy=0;entryPerimeter=0;labelBackgroundColor=default;strokeColor=default;fontFamily=Helvetica;fontSize=11;fontColor=default;endArrow=none;endFill=0;" parent="1" source="9gHFa2cFM0NEfiinafTs-6" target="9gHFa2cFM0NEfiinafTs-36" edge="1">
          <mxGeometry relative="1" as="geometry" />
        </mxCell>
        <mxCell id="9gHFa2cFM0NEfiinafTs-77" style="edgeStyle=orthogonalEdgeStyle;shape=connector;rounded=1;orthogonalLoop=1;jettySize=auto;html=1;exitX=0.5;exitY=1;exitDx=0;exitDy=0;exitPerimeter=0;labelBackgroundColor=default;strokeColor=default;fontFamily=Helvetica;fontSize=11;fontColor=default;endArrow=none;endFill=0;" parent="1" source="9gHFa2cFM0NEfiinafTs-6" target="9gHFa2cFM0NEfiinafTs-76" edge="1">
          <mxGeometry relative="1" as="geometry" />
        </mxCell>
        <mxCell id="9gHFa2cFM0NEfiinafTs-6" value="" style="strokeWidth=1;html=1;shape=mxgraph.flowchart.decision;whiteSpace=wrap;strokeColor=#33FF33;" parent="1" vertex="1">
          <mxGeometry x="-10" y="761" width="60" height="40" as="geometry" />
        </mxCell>
        <mxCell id="9gHFa2cFM0NEfiinafTs-7" value="" style="strokeWidth=1;html=1;shape=mxgraph.flowchart.decision;whiteSpace=wrap;strokeColor=#33FF33;" parent="1" vertex="1">
          <mxGeometry x="240" y="500" width="60" height="40" as="geometry" />
        </mxCell>
        <mxCell id="9gHFa2cFM0NEfiinafTs-26" value="" style="edgeStyle=orthogonalEdgeStyle;shape=connector;rounded=0;orthogonalLoop=1;jettySize=auto;html=1;exitX=0.5;exitY=0;exitDx=0;exitDy=0;entryX=0.5;entryY=1;entryDx=0;entryDy=0;entryPerimeter=0;labelBackgroundColor=default;strokeColor=default;fontFamily=Helvetica;fontSize=11;fontColor=default;endArrow=none;endFill=0;" parent="1" source="9gHFa2cFM0NEfiinafTs-2" target="9gHFa2cFM0NEfiinafTs-25" edge="1">
          <mxGeometry relative="1" as="geometry">
            <mxPoint x="270" y="671" as="sourcePoint" />
            <mxPoint x="270" y="586" as="targetPoint" />
          </mxGeometry>
        </mxCell>
        <mxCell id="9gHFa2cFM0NEfiinafTs-27" value="(1,n)" style="edgeLabel;html=1;align=center;verticalAlign=middle;resizable=0;points=[];fontSize=14;fontFamily=Helvetica;fontColor=default;" parent="9gHFa2cFM0NEfiinafTs-26" connectable="0" vertex="1">
          <mxGeometry x="-0.5765" y="1" relative="1" as="geometry">
            <mxPoint y="-1" as="offset" />
          </mxGeometry>
        </mxCell>
        <mxCell id="9gHFa2cFM0NEfiinafTs-25" value="" style="strokeWidth=1;html=1;shape=mxgraph.flowchart.decision;whiteSpace=wrap;strokeColor=#33FF33;" parent="1" vertex="1">
          <mxGeometry x="240" y="630" width="60" height="40" as="geometry" />
        </mxCell>
        <mxCell id="9gHFa2cFM0NEfiinafTs-43" style="edgeStyle=orthogonalEdgeStyle;shape=connector;rounded=1;orthogonalLoop=1;jettySize=auto;html=1;exitX=1;exitY=0.5;exitDx=0;exitDy=0;exitPerimeter=0;entryX=0;entryY=0.5;entryDx=0;entryDy=0;labelBackgroundColor=default;strokeColor=default;fontFamily=Helvetica;fontSize=11;fontColor=default;endArrow=none;endFill=0;" parent="1" source="9gHFa2cFM0NEfiinafTs-29" target="9gHFa2cFM0NEfiinafTs-1" edge="1">
          <mxGeometry relative="1" as="geometry" />
        </mxCell>
        <mxCell id="9gHFa2cFM0NEfiinafTs-29" value="id" style="strokeWidth=3;html=1;shape=mxgraph.flowchart.start_1;whiteSpace=wrap;fontFamily=Helvetica;fontSize=11;fontColor=default;strokeColor=#f9ab24;" parent="1" vertex="1">
          <mxGeometry x="-430" y="751" width="80" height="50" as="geometry" />
        </mxCell>
        <mxCell id="9gHFa2cFM0NEfiinafTs-30" value="data" style="strokeWidth=2;html=1;shape=mxgraph.flowchart.start_1;whiteSpace=wrap;fontFamily=Helvetica;fontSize=11;fontColor=default;strokeColor=#f9ab24;" parent="1" vertex="1">
          <mxGeometry x="-410" y="971" width="80" height="50" as="geometry" />
        </mxCell>
        <mxCell id="9gHFa2cFM0NEfiinafTs-31" value="status" style="strokeWidth=2;html=1;shape=mxgraph.flowchart.start_1;whiteSpace=wrap;fontFamily=Helvetica;fontSize=11;fontColor=default;strokeColor=#f9ab24;" parent="1" vertex="1">
          <mxGeometry x="-250" y="861" width="80" height="50" as="geometry" />
        </mxCell>
        <mxCell id="9gHFa2cFM0NEfiinafTs-32" value="codigo" style="strokeWidth=2;html=1;shape=mxgraph.flowchart.start_1;whiteSpace=wrap;fontFamily=Helvetica;fontSize=11;fontColor=default;strokeColor=#f9ab24;" parent="1" vertex="1">
          <mxGeometry x="-310" y="931" width="80" height="50" as="geometry" />
        </mxCell>
        <mxCell id="9gHFa2cFM0NEfiinafTs-33" value="empresa" style="strokeWidth=2;html=1;shape=mxgraph.flowchart.start_1;whiteSpace=wrap;fontFamily=Helvetica;fontSize=11;fontColor=default;strokeColor=#f9ab24;" parent="1" vertex="1">
          <mxGeometry x="-490" y="831" width="80" height="50" as="geometry" />
        </mxCell>
        <mxCell id="9gHFa2cFM0NEfiinafTs-34" value="instituição" style="strokeWidth=2;html=1;shape=mxgraph.flowchart.start_1;whiteSpace=wrap;fontFamily=Helvetica;fontSize=11;fontColor=default;strokeColor=#f9ab24;" parent="1" vertex="1">
          <mxGeometry x="-450" y="901" width="80" height="50" as="geometry" />
        </mxCell>
        <mxCell id="9gHFa2cFM0NEfiinafTs-35" value="quant_max" style="strokeWidth=2;html=1;shape=mxgraph.flowchart.start_1;whiteSpace=wrap;fontFamily=Helvetica;fontSize=11;fontColor=default;strokeColor=#f9ab24;" parent="1" vertex="1">
          <mxGeometry x="-100" y="841" width="80" height="50" as="geometry" />
        </mxCell>
        <mxCell id="9gHFa2cFM0NEfiinafTs-36" value="quant_fornecida" style="strokeWidth=2;html=1;shape=mxgraph.flowchart.start_1;whiteSpace=wrap;fontFamily=Helvetica;fontSize=11;fontColor=default;strokeColor=#f9ab24;" parent="1" vertex="1">
          <mxGeometry x="-20" y="881" width="80" height="50" as="geometry" />
        </mxCell>
        <mxCell id="9gHFa2cFM0NEfiinafTs-37" value="id" style="strokeWidth=3;html=1;shape=mxgraph.flowchart.start_1;whiteSpace=wrap;fontFamily=Helvetica;fontSize=11;fontColor=default;strokeColor=#f9ab24;" parent="1" vertex="1">
          <mxGeometry x="420" y="691" width="80" height="50" as="geometry" />
        </mxCell>
        <mxCell id="9gHFa2cFM0NEfiinafTs-38" value="nome" style="strokeWidth=2;html=1;shape=mxgraph.flowchart.start_1;whiteSpace=wrap;fontFamily=Helvetica;fontSize=11;fontColor=default;strokeColor=#f9ab24;" parent="1" vertex="1">
          <mxGeometry x="450" y="756" width="80" height="50" as="geometry" />
        </mxCell>
        <mxCell id="9gHFa2cFM0NEfiinafTs-39" value="codigo" style="strokeWidth=2;html=1;shape=mxgraph.flowchart.start_1;whiteSpace=wrap;fontFamily=Helvetica;fontSize=11;fontColor=default;strokeColor=#f9ab24;" parent="1" vertex="1">
          <mxGeometry x="350" y="881" width="80" height="50" as="geometry" />
        </mxCell>
        <mxCell id="9gHFa2cFM0NEfiinafTs-42" value="marca" style="strokeWidth=2;html=1;shape=mxgraph.flowchart.start_1;whiteSpace=wrap;fontFamily=Helvetica;fontSize=11;fontColor=default;strokeColor=#f9ab24;" parent="1" vertex="1">
          <mxGeometry x="450" y="831" width="80" height="50" as="geometry" />
        </mxCell>
        <mxCell id="9gHFa2cFM0NEfiinafTs-56" value="id" style="strokeWidth=3;html=1;shape=mxgraph.flowchart.start_1;whiteSpace=wrap;fontFamily=Helvetica;fontSize=11;fontColor=default;strokeColor=#f9ab24;" parent="1" vertex="1">
          <mxGeometry x="190" y="250" width="80" height="50" as="geometry" />
        </mxCell>
        <mxCell id="9gHFa2cFM0NEfiinafTs-57" value="data" style="strokeWidth=2;html=1;shape=mxgraph.flowchart.start_1;whiteSpace=wrap;fontFamily=Helvetica;fontSize=11;fontColor=default;strokeColor=#f9ab24;" parent="1" vertex="1">
          <mxGeometry x="290" y="230" width="80" height="50" as="geometry" />
        </mxCell>
        <mxCell id="9gHFa2cFM0NEfiinafTs-58" value="status" style="strokeWidth=2;html=1;shape=mxgraph.flowchart.start_1;whiteSpace=wrap;fontFamily=Helvetica;fontSize=11;fontColor=default;strokeColor=#f9ab24;" parent="1" vertex="1">
          <mxGeometry x="360" y="310" width="80" height="50" as="geometry" />
        </mxCell>
        <mxCell id="9gHFa2cFM0NEfiinafTs-62" value="id" style="strokeWidth=3;html=1;shape=mxgraph.flowchart.start_1;whiteSpace=wrap;fontFamily=Helvetica;fontSize=11;fontColor=default;strokeColor=#f9ab24;" parent="1" vertex="1">
          <mxGeometry x="-280" y="250" width="80" height="50" as="geometry" />
        </mxCell>
        <mxCell id="9gHFa2cFM0NEfiinafTs-63" value="nome" style="strokeWidth=2;html=1;shape=mxgraph.flowchart.start_1;whiteSpace=wrap;fontFamily=Helvetica;fontSize=11;fontColor=default;strokeColor=#f9ab24;" parent="1" vertex="1">
          <mxGeometry x="-370" y="280" width="80" height="50" as="geometry" />
        </mxCell>
        <mxCell id="9gHFa2cFM0NEfiinafTs-64" value="login" style="strokeWidth=2;html=1;shape=mxgraph.flowchart.start_1;whiteSpace=wrap;fontFamily=Helvetica;fontSize=11;fontColor=default;strokeColor=#f9ab24;" parent="1" vertex="1">
          <mxGeometry x="-453" y="340" width="80" height="50" as="geometry" />
        </mxCell>
        <mxCell id="9gHFa2cFM0NEfiinafTs-65" value="senha" style="strokeWidth=2;html=1;shape=mxgraph.flowchart.start_1;whiteSpace=wrap;fontFamily=Helvetica;fontSize=11;fontColor=default;strokeColor=#f9ab24;" parent="1" vertex="1">
          <mxGeometry x="-413" y="390" width="80" height="50" as="geometry" />
        </mxCell>
        <mxCell id="9gHFa2cFM0NEfiinafTs-66" value="tipo" style="strokeWidth=2;html=1;shape=mxgraph.flowchart.start_1;whiteSpace=wrap;fontFamily=Helvetica;fontSize=11;fontColor=default;strokeColor=#f9ab24;" parent="1" vertex="1">
          <mxGeometry x="-360" y="450" width="80" height="50" as="geometry" />
        </mxCell>
        <mxCell id="9gHFa2cFM0NEfiinafTs-67" value="status" style="strokeWidth=2;html=1;shape=mxgraph.flowchart.start_1;whiteSpace=wrap;fontFamily=Helvetica;fontSize=11;fontColor=default;strokeColor=#f9ab24;" parent="1" vertex="1">
          <mxGeometry x="-260" y="450" width="80" height="50" as="geometry" />
        </mxCell>
        <mxCell id="9gHFa2cFM0NEfiinafTs-76" value="preço" style="strokeWidth=2;html=1;shape=mxgraph.flowchart.start_1;whiteSpace=wrap;fontFamily=Helvetica;fontSize=11;fontColor=default;strokeColor=#f9ab24;" parent="1" vertex="1">
          <mxGeometry x="50" y="841" width="80" height="50" as="geometry" />
        </mxCell>
        <mxCell id="9gHFa2cFM0NEfiinafTs-81" value="" style="edgeStyle=orthogonalEdgeStyle;shape=connector;rounded=1;orthogonalLoop=1;jettySize=auto;html=1;labelBackgroundColor=default;strokeColor=default;fontFamily=Helvetica;fontSize=11;fontColor=default;endArrow=none;endFill=0;" parent="1" source="9gHFa2cFM0NEfiinafTs-80" target="9gHFa2cFM0NEfiinafTs-25" edge="1">
          <mxGeometry relative="1" as="geometry" />
        </mxCell>
        <mxCell id="9gHFa2cFM0NEfiinafTs-80" value="quantidade" style="strokeWidth=2;html=1;shape=mxgraph.flowchart.start_1;whiteSpace=wrap;fontFamily=Helvetica;fontSize=11;fontColor=default;strokeColor=#f9ab24;" parent="1" vertex="1">
          <mxGeometry x="90" y="600" width="80" height="50" as="geometry" />
        </mxCell>
        <mxCell id="9gHFa2cFM0NEfiinafTs-82" value="" style="whiteSpace=wrap;html=1;aspect=fixed;fontFamily=Helvetica;fontSize=11;fontColor=default;fillColor=none;gradientColor=none;strokeColor=#4a31c9;" parent="1" vertex="1">
          <mxGeometry x="240" y="490" width="60" height="60" as="geometry" />
        </mxCell>
      </root>
    </mxGraphModel>
  </diagram>
</mxfile>
